<?xml version="1.0" encoding="iso-8859-1"?>
<!-- Generator: Adobe Illustrator 19.0.0, SVG Export Plug-In . SVG Version: 6.00 Build 0)  -->
<svg version="1.1" id="Capa_1" xmlns="http://www.w3.org/2000/svg" xmlns:xlink="http://www.w3.org/1999/xlink" x="0px" y="0px"
	 viewBox="0 0 512 512" style="enable-background:new 0 0 512 512;" xml:space="preserve">
<g>
	<g>
		<rect x="155.19" y="155.19" width="201.61" height="201.61"/>
	</g>
</g>
<g>
	<g>
		<path d="M446.807,135.517V65.193h-70.322V0h-30v65.193h-40.323V0h-30v65.193H235.84V0h-30v65.193h-40.323V0h-30v65.193H65.194
			v70.323H0v30h65.194v40.322H0v30h65.194v40.322H0v30h65.194v40.323H0v30h65.194v70.322h70.322V512h30v-65.193h40.323V512h30
			v-65.193h40.322V512h30v-65.193h40.323V512h30v-65.193h70.322v-70.322H512v-30h-65.193v-40.323H512v-30h-65.193V235.84H512v-30
			h-65.193v-40.322H512v-0.001v-30H446.807z M386.807,386.807H125.194V125.194h261.613V386.807z"/>
	</g>
</g>
<g>
</g>
<g>
</g>
<g>
</g>
<g>
</g>
<g>
</g>
<g>
</g>
<g>
</g>
<g>
</g>
<g>
</g>
<g>
</g>
<g>
</g>
<g>
</g>
<g>
</g>
<g>
</g>
<g>
</g>
</svg>
