<svg width="40" height="40" viewBox="0 0 40 40" fill="" xmlns="http://www.w3.org/2000/svg">
    <path d="M24.5902 37.9618C24.5902 39.087 25.5032 40 26.6284 40C27.7537 40 28.6667 39.087 28.6667 37.9618V34.6709H24.5945V37.9618H24.5902Z"
          fill="inherit"/>
    <path d="M24.5902 2.03822V5.32909H28.6624V2.03822C28.6624 0.912952 27.7495 0 26.6242 0C25.4989 0 24.5902 0.912952 24.5902 2.03822Z"
          fill="inherit"/>
    <path d="M17.9618 2.03822V5.32909H22.0382V2.03822C22.0382 0.912952 21.1253 0 20 0C18.8747 0 17.9618 0.912952 17.9618 2.03822Z"
          fill="inherit"/>
    <path d="M17.9618 37.9618C17.9618 39.087 18.8747 40 20 40C21.1253 40 22.0382 39.087 22.0382 37.9618V34.6709H17.9618V37.9618Z"
          fill="inherit"/>
    <path d="M11.3376 2.03822V5.32909H15.4098V2.03822C15.4098 0.912952 14.4968 0 13.3715 0C12.2463 0 11.3376 0.912952 11.3376 2.03822Z"
          fill="inherit"/>
    <path d="M11.3376 37.9618C11.3376 39.087 12.2505 40 13.3758 40C14.5011 40 15.414 39.087 15.414 37.9618V34.6709H11.3376V37.9618Z"
          fill="inherit"/>
    <path d="M0 26.6241C0 27.7493 0.912952 28.6623 2.03822 28.6623H5.32909V24.5901H2.03822C0.912952 24.5901 0 25.4988 0 26.6241Z"
          fill="inherit"/>
    <path d="M37.9618 24.5901H34.6709V28.6623H37.9618C39.087 28.6623 40 27.7493 40 26.6241C40 25.4988 39.087 24.5901 37.9618 24.5901Z"
          fill="inherit"/>
    <path d="M0 19.9999C0 21.1252 0.912952 22.0381 2.03822 22.0381H5.32909V17.9617H2.03822C0.912952 17.9617 0 18.8746 0 19.9999Z"
          fill="inherit"/>
    <path d="M37.9618 17.9617H34.6709V22.0381H37.9618C39.087 22.0381 40 21.1252 40 19.9999C40 18.8746 39.087 17.9617 37.9618 17.9617Z"
          fill="inherit"/>
    <path d="M0 13.3759C0 14.5011 0.912952 15.4141 2.03822 15.4141H5.32909V11.3376H2.03822C0.912952 11.3376 0 12.2506 0 13.3759Z"
          fill="inherit"/>
    <path d="M37.9618 11.3376H34.6709V15.4098H37.9618C39.087 15.4098 40 14.4969 40 13.3716C40 12.2464 39.087 11.3376 37.9618 11.3376Z"
          fill="inherit"/>
    <path d="M7.28662 30.5902C7.28662 31.7622 8.23779 32.7134 9.40977 32.7134H30.5903C31.7622 32.7134 32.7134 31.7622 32.7134 30.5902V9.40976C32.7134 8.23779 31.7622 7.28662 30.5903 7.28662H9.40977C8.23779 7.28662 7.28662 8.23779 7.28662 9.40976V30.5902Z"
          fill="inherit"/>
</svg>
