<svg width="40" height="40" viewBox="0 0 40 40" fill="" xmlns="http://www.w3.org/2000/svg">
    <path d="M39.3282 17.8816L21.3815 1.52863C20.5938 0.810743 19.4059 0.810821 18.6185 1.52855L0.671706 17.8816C0.0406912 18.4566 -0.167746 19.3426 0.140535 20.1386C0.448894 20.9346 1.19967 21.4489 2.05335 21.4489H4.91975V37.8333C4.91975 38.4829 5.44647 39.0097 6.09608 39.0097H15.9331C16.5827 39.0097 17.1094 38.483 17.1094 37.8333V27.8852H22.8908V37.8334C22.8908 38.483 23.4175 39.0097 24.0671 39.0097H33.9037C34.5533 39.0097 35.08 38.4831 35.08 37.8334V21.4489H37.947C38.8006 21.4489 39.5514 20.9345 39.8598 20.1386C40.1677 19.3425 39.9592 18.4566 39.3282 17.8816Z"
          fill="inherit"/>
    <path d="M34.7727 3.33838H26.8728L35.9491 11.5912V4.51463C35.9491 3.86502 35.4224 3.33838 34.7727 3.33838Z"
          fill="inherit"/>
</svg>
