<svg width="40" height="40" viewBox="0 0 40 40" fill="" xmlns="http://www.w3.org/2000/svg">
    <path d="M39.6905 18.4569C39.3058 19.0729 38.6451 19.4119 37.9682 19.4119C37.6028 19.4119 37.2283 19.3124 36.8934 19.1034L20.0005 8.55355L3.10659 19.1044C2.15462 19.6991 0.902239 19.4089 0.309541 18.4569C-0.285186 17.5059 0.00405832 16.2535 0.956029 15.6598L18.9247 4.43816C19.5814 4.02712 20.4176 4.02712 21.0753 4.43816L39.046 15.6609C39.9959 16.2556 40.2852 17.5059 39.6905 18.4569ZM33.1545 19.5509L21.0773 12.0072C20.4197 11.5962 19.5834 11.5962 18.9268 12.0072L6.84749 19.5509C6.25377 19.9214 5.8945 20.5719 5.8945 21.2722V33.8406C5.8945 34.9611 6.80385 35.8704 7.92429 35.8704H14.5891C15.7095 35.8704 16.6189 34.9611 16.6189 33.8406V28.1187C16.6189 26.2533 18.1372 24.737 20.0025 24.737C21.8669 24.737 23.3852 26.2553 23.3852 28.1187V33.8396C23.3852 34.9601 24.2945 35.8694 25.415 35.8694H32.0798C33.2002 35.8694 34.1096 34.9601 34.1096 33.8396V21.2722C34.1085 20.5709 33.7483 19.9204 33.1545 19.5509Z"
          fill="inherit"/>
</svg>
