<svg width="53" height="40" viewBox="0 0 53 40" fill="" xmlns="http://www.w3.org/2000/svg">
    <path d="M52.1098 32.542C51.9685 32.2896 51.0943 30.2634 46.8877 26.0989C42.484 21.7381 43.0755 22.4462 48.3798 14.9059C51.6103 10.3137 52.9018 7.50929 52.4976 6.31041C52.1131 5.16762 49.737 5.4691 49.737 5.4691L41.8366 5.51817C41.8366 5.51817 41.2516 5.43404 40.8145 5.71098C40.3905 5.9844 40.1178 6.61539 40.1178 6.61539C40.1178 6.61539 38.8656 10.17 37.1962 13.1917C33.6764 19.5682 32.2666 19.9047 31.6914 19.5086C30.3539 18.5866 30.6891 15.7998 30.6891 13.8227C30.6891 7.6425 31.5666 5.06597 28.9769 4.39992C28.1158 4.17908 27.4849 4.03185 25.2863 4.00731C22.4665 3.97576 20.0773 4.01782 18.7266 4.72243C17.8261 5.19216 17.1327 6.2403 17.5567 6.2999C18.0792 6.37351 19.2623 6.63993 19.89 7.55136C20.7017 8.7257 20.6722 11.3688 20.6722 11.3688C20.6722 11.3688 21.1388 18.6427 19.5844 19.5471C18.5163 20.1676 17.0538 18.9021 13.9153 13.1146C12.3083 10.1524 11.0923 6.8748 11.0923 6.8748C11.0923 6.8748 10.859 6.26484 10.4416 5.93883C9.93551 5.54271 9.22565 5.41651 9.22565 5.41651L1.71294 5.46559C1.71294 5.46559 0.585712 5.50065 0.171626 6.02296C-0.19645 6.48919 0.142049 7.4497 0.142049 7.4497C0.142049 7.4497 6.0247 22.1272 12.6829 29.5273C18.7923 36.3104 25.7266 35.8652 25.7266 35.8652H28.8684C28.8684 35.8652 29.8182 35.753 30.3013 35.1956C30.7483 34.6838 30.7318 33.7233 30.7318 33.7233C30.7318 33.7233 30.6694 29.2258 32.6281 28.5633C34.5572 27.9112 37.0351 32.9101 39.661 34.8346C41.6459 36.2894 43.1544 35.9704 43.1544 35.9704L50.1774 35.8652C50.1774 35.8652 53.8516 35.6233 52.1098 32.542Z"
          fill="inherit"/>
</svg>
