<svg width="41" height="40" viewBox="0 0 41 40" fill="" xmlns="http://www.w3.org/2000/svg">
    <path d="M9.3315 12.8527H1.28373C0.926557 12.8527 0.637146 13.1422 0.637146 13.4992V39.3533C0.637146 39.7105 0.926557 39.9999 1.28373 39.9999H9.3315C9.68867 39.9999 9.97808 39.7105 9.97808 39.3533V13.4992C9.97808 13.1422 9.68867 12.8527 9.3315 12.8527Z"
          fill="inherit"/>
    <path d="M5.31052 0C2.38227 0 0 2.37969 0 5.3047C0 8.23101 2.38227 10.6116 5.31052 10.6116C8.23644 10.6116 10.6168 8.23088 10.6168 5.3047C10.6169 2.37969 8.23644 0 5.31052 0Z"
          fill="inherit"/>
    <path d="M29.8016 12.2101C26.5693 12.2101 24.1799 13.5996 22.7307 15.1784V13.4992C22.7307 13.1422 22.4412 12.8527 22.0841 12.8527H14.3769C14.0197 12.8527 13.7303 13.1422 13.7303 13.4992V39.3533C13.7303 39.7105 14.0197 39.9999 14.3769 39.9999H22.4071C22.7643 39.9999 23.0537 39.7105 23.0537 39.3533V26.5615C23.0537 22.251 24.2245 20.5717 27.2293 20.5717C30.5018 20.5717 30.7619 23.2638 30.7619 26.7833V39.3534C30.7619 39.7106 31.0513 40 31.4085 40H39.4416C39.7988 40 40.0882 39.7106 40.0882 39.3534V25.172C40.0882 18.7624 38.866 12.2101 29.8016 12.2101Z"
          fill="inherit"/>
</svg>
