<svg width="41" height="40" viewBox="0 0 41 40" fill="" xmlns="http://www.w3.org/2000/svg">
    <path d="M32.4313 0H8.16068C3.65328 0 0 3.65328 0 8.16068V31.8393C0 36.3467 3.65328 40 8.16068 40H32.4313C36.9387 40 40.592 36.3467 40.592 31.8393V8.16068C40.592 3.65328 36.9387 0 32.4313 0ZM20.296 29.556C15.019 29.556 10.74 25.277 10.74 20C10.74 14.723 15.019 10.444 20.296 10.444C25.5729 10.444 29.852 14.723 29.852 20C29.852 25.277 25.5729 29.556 20.296 29.556ZM32.6173 10.1987C31.4926 10.1987 30.5793 9.28541 30.5793 8.16068C30.5793 7.03594 31.4926 6.12262 32.6173 6.12262C33.7421 6.12262 34.6554 7.03594 34.6554 8.16068C34.6554 9.28541 33.7421 10.1987 32.6173 10.1987Z"
          fill="inherit"/>
</svg>
