<svg width="40" height="40" viewBox="0 0 40 40" fill="" xmlns="http://www.w3.org/2000/svg">
    <path d="M16.3636 9.09089H23.6371C24.1292 9.09089 24.5551 8.91109 24.9154 8.55119C25.2746 8.19158 25.4548 7.76531 25.4548 7.27287V1.81832C25.4548 1.32598 25.2746 0.900005 24.9147 0.539704C24.555 0.180299 24.1285 0 23.6363 0H16.3636C15.8714 0 15.4452 0.180299 15.0852 0.539704C14.7255 0.899607 14.5455 1.32598 14.5455 1.81832V7.27287C14.5455 7.76531 14.7255 8.19158 15.0852 8.55119C15.4452 8.91109 15.8714 9.09089 16.3636 9.09089Z"
          fill="inherit"/>
    <path d="M28.551 33.2669C28.1915 32.907 27.7652 32.7269 27.2727 32.7269H25.4544V16.3634C25.4544 15.8712 25.2746 15.4451 24.915 15.0853C24.5548 14.7254 24.1285 14.5454 23.6366 14.5454H12.7276C12.2352 14.5454 11.8091 14.7254 11.4493 15.0853C11.0893 15.4451 10.9096 15.8712 10.9096 16.3634V20C10.9096 20.4921 11.0894 20.9185 11.4493 21.2781C11.809 21.6384 12.2352 21.8182 12.7276 21.8182H14.5459V32.727H12.7276C12.2352 32.727 11.8091 32.9071 11.4493 33.267C11.0893 33.6266 10.9096 34.0528 10.9096 34.5453V38.1817C10.9096 38.6741 11.0894 39.1003 11.4493 39.4607C11.809 39.8199 12.2352 40.0001 12.7276 40.0001H27.2727C27.7651 40.0001 28.1914 39.8199 28.551 39.4607C28.9106 39.1004 29.0904 38.6742 29.0904 38.1817V34.5453C29.0904 34.0527 28.9116 33.6265 28.551 33.2669Z"
          fill="inherit"/>
</svg>
