<svg width="40" height="40" viewBox="0 0 40 40" fill="" xmlns="http://www.w3.org/2000/svg">
    <path d="M25 10.8334C24.08 10.8334 23.3333 10.0867 23.3333 9.16671V6.66671H16.6667V9.16671C16.6667 10.0867 15.92 10.8334 15 10.8334C14.08 10.8334 13.3334 10.0867 13.3334 9.16671V6.66671C13.3334 4.82837 14.8284 3.33337 16.6667 3.33337H23.3333C25.1717 3.33337 26.6667 4.82837 26.6667 6.66671V9.16671C26.6667 10.0867 25.92 10.8334 25 10.8334Z"
          fill="inherit"/>
    <path d="M21.1833 25.6334C20.8833 25.75 20.45 25.8334 20 25.8334C19.55 25.8334 19.1167 25.75 18.7167 25.6L-7.62939e-06 19.3667V32.0834C-7.62939e-06 34.6167 2.04999 36.6667 4.58333 36.6667H35.4167C37.95 36.6667 40 34.6167 40 32.0834V19.3667L21.1833 25.6334Z"
          fill="inherit"/>
    <path d="M40 12.9167V16.7334L20.4 23.2667C20.2667 23.3167 20.1333 23.3334 20 23.3334C19.8667 23.3334 19.7333 23.3167 19.6 23.2667L-7.62939e-06 16.7334V12.9167C-7.62939e-06 10.3834 2.04999 8.33337 4.58333 8.33337H35.4167C37.95 8.33337 40 10.3834 40 12.9167Z"
          fill="inherit"/>
</svg>
