<svg width="40" height="40" viewBox="0 0 40 40" fill="" xmlns="http://www.w3.org/2000/svg">
    <path d="M39.18 0.00495592C31.3717 -0.135044 22.4667 3.94662 16.83 10.2783C11.4433 10.38 6.19833 12.5883 2.33667 16.45C2.11167 16.6716 2.03167 17.0033 2.13 17.3033C2.23 17.605 2.49 17.8233 2.80333 17.8683L9.22666 18.7883L8.43333 19.6766C8.13833 20.0066 8.15333 20.5083 8.46666 20.8216L19.1783 31.5333C19.34 31.695 19.5533 31.7766 19.7683 31.7766C19.9667 31.7766 20.165 31.7066 20.3233 31.565L21.2117 30.7716L22.1317 37.195C22.1767 37.5083 22.4233 37.7383 22.7217 37.8383C22.7983 37.8633 22.8783 37.875 22.96 37.875C23.1967 37.875 23.4383 37.7716 23.605 37.6066C27.4133 33.7983 29.6217 28.5533 29.7233 23.1666C36.0617 17.5183 40.1767 8.61662 39.995 0.818289C39.9833 0.374956 39.625 0.0166226 39.18 0.00495592ZM31.5 14.3916C30.6883 15.2033 29.6217 15.61 28.5533 15.61C27.485 15.61 26.4183 15.2033 25.6067 14.3916C23.9833 12.7666 23.9833 10.1233 25.6067 8.49829C27.2317 6.87329 29.875 6.87329 31.5 8.49829C33.125 10.1233 33.125 12.7683 31.5 14.3916Z"
          fill="inherit"/>
    <path d="M4.54 28.1751C2.75667 29.9584 0.308337 38.0151 0.0350041 38.9267C-0.0533292 39.2201 0.0283375 39.5384 0.243337 39.7551C0.403337 39.9151 0.615004 40.0001 0.833337 40.0001C0.913337 40.0001 0.993337 39.9884 1.07334 39.9651C1.985 39.6917 10.0417 37.2434 11.825 35.4601C13.8333 33.4517 13.8333 30.1834 11.825 28.1751C9.815 26.1667 6.54834 26.1684 4.54 28.1751Z"
          fill="inherit"/>
</svg>
